<?xml version="1.0" encoding="UTF-8"?>
<svg id="Calque_1" data-name="Calque 1" xmlns="http://www.w3.org/2000/svg" viewBox="0 0 1190.03 858.96">
  <defs>
    <style>
      .cls-1 {
        fill: #040512;
      }

      .cls-1, .cls-2 {
        stroke-width: 0px;
      }

      .cls-2 {
        fill: #63a9eb;
      }
    </style>
  </defs>
  <path class="cls-1" d="m622.1,330.25c9.02-.38,17.59-.88,26.15-.91,5.7-.02,8.68-4.06,11.65-7.55,13.64-16.1,26.82-32.6,40.42-48.74,15.79-18.72,34.22-34.11,55.52-46.58,14.38-8.42,29.09-15.85,44.53-21.67,17.14-6.46,34.93-10.55,53.42-5.94,8.84,2.2,15.84,7.14,16.1,19.21.79,36.55-6.6,71.34-22.73,103.84-12.81,25.82-30.58,48.38-52.48,67.42-2.91,2.53-6.27,5.35-9.8,1.4-3.4-3.8-.53-7.22,2.16-9.84,5.26-5.11,10.19-10.52,15.28-15.78,15.15-15.66,27.21-33.34,36.43-53.02,13.84-29.53,20.08-60.62,19.31-93.2-.09-4-1.67-6.49-5.04-7.85-8.05-3.26-16.4-2.7-24.73-1.4-3.33.52-4.52,2.98-5.58,6.02-6.32,18.19-12.71,36.35-22.11,53.29-5.3,9.54-11.16,18.66-17.99,27.17-1.62,2.02-3.61,3.6-6.04,4.36-2.49.78-4.47-.25-5.93-2.43-1.81-2.72-1.35-5.59.6-7.59,15.77-16.13,24.32-36.3,32.42-56.79,2.43-6.15,5.27-12.09,5.97-19.45-21.59,6.84-40.32,17.04-58.56,28.8-18.85,12.15-33.98,27.6-47.62,45.09-8.99,11.52-19.19,22.07-28.69,33.2-10.18,11.92-20.13,24.04-30.25,36.02-9.85,11.66-19.77,23.26-29.66,34.89-7.45,8.76-14.89,17.52-22.35,26.28-13.01,15.28-26.04,30.53-39.02,45.84-7.3,8.61-14.46,17.33-21.73,25.97-10.24,12.16-19.64,25.19-31.02,36.17-13.31,12.85-30.4,16.53-48.46,12.29-32.23-7.56-64.42-15.35-96.45-23.69-13.9-3.62-29.52,7.46-25.73,22.76,2.03,8.19,8.75,12.5,15.09,16.97,21.51,15.15,42.92,30.46,64.66,45.27,13.62,9.28,26.52,19.7,41.14,27.43,18.8,9.93,38.55,11.21,59,5.69,16.41-4.43,28.99-14.58,40.92-25.97,14.23-13.58,28.65-26.95,42.96-40.43,2.6-2.44,4.62-4.67,4.07-9.1-2.06-16.78-3.4-33.65-5.16-50.47-.41-3.96.64-7.14,4.73-7.36,3.53-.19,6.06,1.79,6.5,6.11,2.05,19.75,4.36,39.48,6.59,59.21,2.58,22.83,4.63,45.73,7.99,68.44,2.04,13.82,18.14,19.74,29.22,11.03,10.54-8.27,19.51-18.36,27.94-28.78,2.05-2.54,2.65-6.13,3.02-9.52,5.55-50.99,11.45-101.94,17.51-152.88,2.89-24.29,5.41-48.64,8.32-72.94.1-.83.28-1.65.38-2.48.49-3.98,2.16-7.07,6.68-6.57,4.87.53,5.07,4.49,4.69,8.15-1,9.8-2.21,19.58-3.39,29.37-1.72,14.36-3.49,28.71-5.23,43.06-.17,1.41-.73,2.94,1.2,4.25,4.99-4.53,10.26-8.93,15.09-13.76,8.74-8.73,17.48-17.45,27.23-25.07,2.88-2.25,6.22-4.73,9.15-.44,2.47,3.61.41,6.62-2.44,9.31-9.58,9.05-18.95,18.33-28.61,27.3-6.6,6.13-12.92,12.55-19.53,18.62-3.25,2.98-5,5.92-5.46,9.98-2.12,18.98-4.18,37.96-6.32,56.94-2.68,23.73-5.34,47.47-8.16,71.19-1.22,10.27-8.36,17.33-15.09,23.98-5.35,5.29-10.06,11.16-15.67,16.28-9.65,8.82-20.14,11.97-32.31,7.76-12.49-4.33-19.15-13.79-20.63-26.81-1.8-15.79-3.43-31.59-5.05-47.4-.19-1.89-.07-3.77-1.59-5.4-2.52-.16-4.31,1.59-5.71,3.19-11.77,13.44-25.72,24.61-38.53,36.95-30.61,29.48-70.07,39.09-111.33,17.95-12.09-6.2-22.72-14.84-33.78-22.71-9.88-7.02-19.8-13.98-29.73-20.93-12.32-8.61-24.67-17.17-36.99-25.78-4.28-2.99-8.39-6.22-12.77-9.05-9.73-6.28-12.96-15.72-12.51-26.54.49-11.91,6.84-20.37,17.31-25.78,7.86-4.06,16.07-3.92,24.44-1.82,30.44,7.64,60.82,15.52,91.35,22.74,19.38,4.58,35.48-.57,48.45-16.76,9.11-11.37,18.75-22.42,28.43-33.38,8.07-9.14,16.6-18.1,23.75-29.06-5.45-2.44-10.68-2.7-15.68-3.75-13.11-2.77-26.82-2.97-39.24-8.59-14.21-6.43-21.35-24.32-14.94-38.74,4.57-10.28,10.48-19.96,15.79-29.91,2.46-4.62,4.94-9.22,7.34-13.87,7.4-14.35,20.08-18.05,35.08-18.56,25.05-.85,50.07-2.55,75.1-3.87,2.09-.11,4.18-.12,6.72-.26Zm-129.78,71.79c-4.39,10.04,4.54,23.68,14.99,25.29,16.79,2.58,33.5,5.65,50.24,8.58,3.19.56,5.71-.12,7.82-2.69,6.37-7.73,12.77-15.44,19.26-23.06,10.55-12.39,21.24-24.67,31.76-37.09,7.16-8.44,14.17-17,21.17-25.57,1.01-1.24,2.45-2.57,1.63-4.47-.85-1.96-2.68-1.69-4.36-1.6-34.23,1.74-68.46,3.38-102.67,5.34-6.62.38-12.2,4.28-15.37,9.82-8.39,14.67-16.08,29.74-24.47,45.46Z"/>
  <path class="cls-2" d="m842.24,795.77c-73.32,0-128.51-63.34-169.42-110.28l-2.04-2.34c-2.18-2.5-1.92-6.29.58-8.47,2.5-2.18,6.29-1.92,8.47.58l2.04,2.34c41.52,47.65,98.38,112.9,171.93,105.59,43-4.28,87.69-31.88,129.24-79.81,38.52-44.44,73.09-104.38,99.97-173.32,30.08-77.12,47.76-158.97,49.79-230.48,2.2-77.37-13.74-137.45-46.09-173.74-23.6-26.47-55.74-39.52-90.5-36.74-46.06,3.68-90.24,33.6-121.21,82.08-1.78,2.79-5.5,3.61-8.29,1.83-2.79-1.78-3.61-5.49-1.83-8.29,33.01-51.67,80.53-83.6,130.37-87.58,38.6-3.09,74.26,11.38,100.41,40.72,34.42,38.62,51.41,101.57,49.12,182.06-2.07,72.84-20.04,156.12-50.6,234.49-27.38,70.21-62.68,131.35-102.08,176.82-43.59,50.3-91.01,79.31-137.12,83.9-4.31.43-8.56.63-12.74.63Z"/>
  <path class="cls-2" d="m348.29,781c-7.93,0-15.92-.77-23.93-2.32-53.79-10.37-108.18-55.37-157.29-130.11-43.95-66.89-80.08-152.18-101.72-240.15-16.93-68.8-23.46-133.57-18.9-187.32,5.04-59.43,23.91-103.75,54.56-128.18,31.4-25.02,67.45-34.32,107.16-27.63,46.16,7.78,96.16,36.7,148.62,85.97,45.33,42.56,90.73,98.98,131.31,163.16,1.77,2.8.94,6.51-1.86,8.28-2.8,1.77-6.51.94-8.28-1.86-40.04-63.33-84.78-118.94-129.38-160.82-50.71-47.62-98.62-75.5-142.4-82.88-36.2-6.1-69.07,2.37-97.69,25.18-28.01,22.32-45.32,63.75-50.08,119.81-4.45,52.46,1.98,115.89,18.6,183.44,21.32,86.68,56.87,170.65,100.09,236.43,47.29,71.97,99,115.17,149.53,124.91,53.64,10.35,104.44-17.3,150.97-82.16,1.93-2.69,5.68-3.31,8.37-1.38,2.69,1.93,3.31,5.68,1.38,8.37-25.27,35.23-52.37,60.37-80.53,74.72-19.01,9.69-38.62,14.55-58.54,14.55Z"/>
</svg>