<?xml version="1.0" encoding="UTF-8"?>
<svg id="Calque_1" data-name="Calque 1" xmlns="http://www.w3.org/2000/svg" viewBox="0 0 2297.33 543.88">
  <defs>
    <style>
      .cls-1 {
        fill: #040512;
      }

      .cls-1, .cls-2 {
        stroke-width: 0px;
      }

      .cls-2 {
        fill: #63a9eb;
      }
    </style>
  </defs>
  <path class="cls-1" d="m389.35,205.42c5.89-.25,11.49-.59,17.09-.61,3.73-.01,5.67-2.72,7.61-5.06,8.91-10.79,17.52-21.85,26.41-32.67,10.32-12.55,22.36-22.86,36.28-31.22,9.4-5.64,19.01-10.62,29.1-14.53,11.2-4.33,22.82-7.07,34.91-3.98,5.78,1.47,10.35,4.79,10.52,12.88.52,24.5-4.31,47.82-14.85,69.61-8.37,17.31-19.98,32.43-34.29,45.19-1.9,1.7-4.1,3.59-6.4.94-2.22-2.55-.35-4.84,1.41-6.6,3.44-3.43,6.66-7.05,9.99-10.58,9.9-10.5,17.78-22.35,23.8-35.54,9.04-19.79,13.12-40.63,12.62-62.47-.06-2.68-1.09-4.35-3.29-5.26-5.26-2.19-10.72-1.81-16.16-.94-2.18.35-2.95,2-3.65,4.04-4.13,12.19-8.3,24.37-14.45,35.72-3.46,6.39-7.29,12.51-11.75,18.21-1.06,1.35-2.36,2.41-3.95,2.92-1.63.52-2.92-.17-3.87-1.63-1.18-1.82-.88-3.75.39-5.09,10.3-10.81,15.89-24.33,21.18-38.07,1.59-4.12,3.44-8.1,3.9-13.04-14.11,4.59-26.35,11.42-38.26,19.3-12.32,8.15-22.2,18.5-31.12,30.22-5.87,7.72-12.54,14.79-18.75,22.25-6.65,7.99-13.15,16.11-19.77,24.15-6.44,7.82-12.92,15.59-19.38,23.39-4.87,5.87-9.73,11.74-14.6,17.62-8.5,10.24-17.01,20.47-25.5,30.73-4.77,5.77-9.45,11.62-14.2,17.41-6.69,8.15-12.83,16.89-20.27,24.25-8.7,8.61-19.86,11.08-31.66,8.24-21.06-5.07-42.09-10.29-63.02-15.88-9.08-2.43-19.29,5-16.81,15.26,1.33,5.49,5.72,8.38,9.86,11.37,14.06,10.16,28.04,20.42,42.25,30.35,8.9,6.22,17.33,13.21,26.88,18.39,12.28,6.66,25.19,7.51,38.55,3.81,10.72-2.97,18.94-9.77,26.74-17.41,9.3-9.1,18.72-18.07,28.07-27.1,1.7-1.64,3.02-3.13,2.66-6.1-1.35-11.25-2.22-22.56-3.37-33.83-.27-2.65.42-4.79,3.09-4.93,2.31-.13,3.96,1.2,4.25,4.1,1.34,13.24,2.85,26.46,4.31,39.69,1.69,15.3,3.02,30.65,5.22,45.88,1.33,9.26,11.85,13.23,19.09,7.39,6.89-5.54,12.75-12.31,18.26-19.29,1.34-1.7,1.73-4.11,1.97-6.38,3.63-34.18,7.48-68.33,11.44-102.48,1.89-16.28,3.54-32.6,5.44-48.89.06-.56.18-1.11.25-1.66.32-2.67,1.41-4.74,4.36-4.4,3.18.36,3.31,3.01,3.06,5.46-.65,6.57-1.44,13.12-2.22,19.69-1.12,9.63-2.28,19.24-3.42,28.86-.11.94-.48,1.97.78,2.85,3.26-3.04,6.7-5.99,9.86-9.22,5.71-5.85,11.42-11.7,17.79-16.8,1.88-1.51,4.06-3.17,5.98-.29,1.61,2.42.27,4.44-1.59,6.24-6.26,6.07-12.38,12.29-18.69,18.3-4.31,4.11-8.44,8.41-12.76,12.48-2.12,2-3.27,3.97-3.57,6.69-1.38,12.72-2.73,25.45-4.13,38.17-1.75,15.91-3.49,31.82-5.33,47.72-.8,6.88-5.46,11.62-9.86,16.07-3.5,3.55-6.57,7.48-10.24,10.91-6.31,5.91-13.16,8.02-21.11,5.2-8.16-2.9-12.51-9.24-13.48-17.97-1.18-10.58-2.24-21.18-3.3-31.77-.12-1.27-.05-2.53-1.04-3.62-1.65-.11-2.82,1.07-3.73,2.14-7.69,9.01-16.81,16.5-25.18,24.77-20,19.76-45.79,26.2-72.75,12.03-7.9-4.16-14.85-9.95-22.07-15.22-6.46-4.71-12.94-9.37-19.43-14.03-8.05-5.77-16.12-11.51-24.17-17.28-2.8-2-5.48-4.17-8.34-6.07-6.36-4.21-8.47-10.54-8.17-17.79.32-7.98,4.47-13.65,11.31-17.28,5.14-2.72,10.5-2.63,15.97-1.22,19.89,5.12,39.74,10.4,59.69,15.24,12.66,3.07,23.18-.38,31.66-11.23,5.95-7.62,12.25-15.03,18.58-22.38,5.27-6.13,10.85-12.13,15.52-19.48-3.56-1.64-6.98-1.81-10.25-2.51-8.57-1.86-17.52-1.99-25.64-5.76-9.29-4.31-13.95-16.3-9.76-25.97,2.99-6.89,6.85-13.38,10.32-20.05,1.61-3.1,3.23-6.18,4.8-9.3,4.83-9.62,13.12-12.1,22.92-12.44,16.37-.57,32.72-1.71,49.07-2.59,1.37-.07,2.73-.08,4.39-.17h.01Zm-84.8,48.12c-2.87,6.73,2.97,15.87,9.8,16.95,10.97,1.73,21.89,3.79,32.83,5.75,2.08.38,3.73-.08,5.11-1.8,4.16-5.18,8.34-10.35,12.59-15.46,6.89-8.31,13.88-16.54,20.75-24.86,4.68-5.66,9.26-11.4,13.83-17.14.66-.83,1.6-1.72,1.07-3-.56-1.31-1.75-1.13-2.85-1.07-22.37,1.17-44.73,2.27-67.09,3.58-4.33.25-7.97,2.87-10.04,6.58-5.48,9.83-10.51,19.93-15.99,30.47h0Z"/>
  <path class="cls-2" d="m533.19,517.47c-47.91,0-83.97-42.46-110.7-73.92l-1.33-1.57c-1.42-1.68-1.26-4.22.38-5.68,1.63-1.46,4.11-1.29,5.53.39l1.33,1.57c27.13,31.94,64.28,75.68,112.34,70.78,28.1-2.87,57.3-21.37,84.45-53.5,25.17-29.79,47.76-69.97,65.32-116.18,19.65-51.69,31.21-106.56,32.53-154.49,1.44-51.86-8.98-92.14-30.12-116.46-15.42-17.74-36.42-26.49-59.13-24.63-30.1,2.47-58.96,22.52-79.2,55.02-1.16,1.87-3.59,2.42-5.42,1.23-1.82-1.19-2.36-3.68-1.2-5.56,21.57-34.64,52.62-56.04,85.19-58.71,25.22-2.07,48.52,7.63,65.61,27.3,22.49,25.89,33.59,68.08,32.1,122.04-1.35,48.83-13.09,104.65-33.06,157.18-17.89,47.06-40.96,88.05-66.7,118.53-28.48,33.72-59.47,53.16-89.6,56.24-2.82.29-5.59.42-8.32.42h0Z"/>
  <path class="cls-2" d="m210.44,507.57c-5.18,0-10.4-.52-15.64-1.56-35.15-6.95-70.69-37.11-102.78-87.22-28.72-44.84-52.33-102.01-66.47-160.98-11.06-46.12-15.33-89.54-12.35-125.56,3.29-39.84,15.62-69.55,35.65-85.92,20.52-16.77,44.07-23.01,70.02-18.52,30.16,5.22,62.83,24.6,97.11,57.63,29.62,28.53,59.28,66.35,85.8,109.37,1.16,1.88.61,4.36-1.22,5.55-1.83,1.19-4.25.63-5.41-1.25-26.16-42.45-55.4-79.73-84.54-107.8-33.14-31.92-64.44-50.61-93.05-55.56-23.65-4.09-45.13,1.59-63.83,16.88-18.3,14.96-29.61,42.73-32.72,80.31-2.91,35.16,1.29,77.68,12.15,122.96,13.93,58.1,37.16,114.39,65.4,158.48,30.9,48.24,64.69,77.2,97.71,83.73,35.05,6.94,68.24-11.6,98.65-55.07,1.26-1.8,3.71-2.22,5.47-.93,1.76,1.29,2.16,3.81.9,5.61-16.51,23.62-34.22,40.47-52.62,50.09-12.42,6.5-25.24,9.75-38.25,9.75h0Z"/>
  <path class="cls-1" d="m939.72,353.18c-7.83,0-14.11-2.55-18.84-7.65-4.73-5.1-8.1-13.02-10.1-23.76l-29.77-153.21c-.36-1.82-.55-3.1-.55-3.82,0-5.46,3.1-8.19,9.29-8.19,3.82,0,6.55.82,8.19,2.46s2.73,4.1,3.28,7.37l28.95,155.94c.91,5.1,2.09,8.65,3.55,10.65,1.46,1.82,3.55,2.73,6.28,2.73,2.91,0,5.1-1,6.55-3,1.46-2.18,2.55-5.55,3.28-10.1l21.57-140.64c1.27-8.37,3.91-14.66,7.92-18.84,4.19-4.37,9.47-6.55,15.84-6.55,13.11,0,20.94,8.47,23.49,25.4l21.57,140.64c.73,4.73,1.82,8.1,3.28,10.1,1.46,2,3.64,3,6.55,3,2.55,0,4.55-1,6.01-3,1.64-2,2.91-5.46,3.82-10.38l28.95-155.94c.55-3.46,1.64-5.92,3.28-7.37,1.82-1.64,4.55-2.46,8.19-2.46,6.19,0,9.29,2.73,9.29,8.19,0,.73-.18,2-.55,3.82l-29.77,153.21c-2,10.2-5.28,18.02-9.83,23.49-4.37,5.28-10.74,7.92-19.12,7.92-7.83,0-14.02-2.55-18.57-7.65-4.37-5.1-7.37-12.93-9.01-23.49l-21.3-137.91c-.55-3.64-1.37-6.19-2.46-7.65-.91-1.64-2.18-2.46-3.82-2.46-1.82,0-3.28.82-4.37,2.46-.91,1.46-1.64,4.01-2.18,7.65l-21.3,137.91c-1.64,10.56-4.73,18.39-9.29,23.49-4.37,5.1-10.47,7.65-18.3,7.65Zm241.51,0c-17.84,0-31.86-3.91-42.05-11.74-10.01-7.83-15.02-18.66-15.02-32.5s5.28-24.49,15.84-32.5c10.74-8.01,25.3-12.02,43.69-12.02,10.74,0,20.21,1.46,28.4,4.37,8.37,2.91,14.84,6.83,19.39,11.74v-17.48c0-10.38-3.46-18.3-10.38-23.76-6.74-5.46-16.66-8.19-29.77-8.19-16.93,0-31.59,4.01-43.96,12.02-3.1,1.82-5.64,2.73-7.65,2.73-1.82,0-3.64-.73-5.46-2.18-2-1.64-3-3.73-3-6.28,0-2.73,1.18-5.01,3.55-6.83,6.55-5.1,14.84-9.1,24.85-12.02,10.2-3.1,20.57-4.64,31.13-4.64,19.3,0,34.23,4.37,44.79,13.11,10.74,8.74,16.11,21.03,16.11,36.87v78.65c0,7.1-3.28,10.65-9.83,10.65-2.91,0-5.28-.91-7.1-2.73-1.82-2-2.73-4.55-2.73-7.65v-9.83c-11.29,13.47-28.22,20.21-50.8,20.21Zm2.46-16.66c14.2,0,25.76-2.64,34.68-7.92,8.92-5.46,13.38-12.47,13.38-21.03s-4.19-15.11-12.56-19.66c-8.19-4.73-19.84-7.1-34.96-7.1-12.74,0-22.58,2.46-29.49,7.37-6.92,4.73-10.37,11.65-10.37,20.76s3.37,15.75,10.1,20.48c6.74,4.73,16.48,7.1,29.22,7.1Zm140.59,16.66c-6.92,0-12.93-2.18-18.02-6.55-5.1-4.55-8.37-10.56-9.83-18.02l-20.76-104.6c-.55-2.91.09-5.28,1.91-7.1,1.82-2,4.28-3,7.37-3,3.64,0,6.28.64,7.92,1.91,1.82,1.09,3,3.19,3.55,6.28l19.66,104.32c1.09,6.37,3.82,9.56,8.19,9.56,2.55,0,4.46-.73,5.73-2.18,1.27-1.46,2.18-3.91,2.73-7.37l14.75-92.03c.91-6.01,3.46-10.92,7.65-14.75,4.19-3.82,9.1-5.73,14.75-5.73s10.56,1.91,14.75,5.73c4.37,3.82,7.01,8.74,7.92,14.75l14.47,92.03c.55,3.46,1.46,5.92,2.73,7.37,1.46,1.46,3.46,2.18,6.01,2.18,4.37,0,7.1-3.19,8.19-9.56l19.39-104.32c.55-3.1,1.64-5.19,3.28-6.28,1.82-1.27,4.55-1.91,8.19-1.91s6.01,1,7.65,3c1.82,2,2.46,4.37,1.91,7.1l-21.03,104.6c-1.64,7.65-5.01,13.65-10.1,18.02-5.1,4.37-10.92,6.55-17.48,6.55-14.75,0-23.49-8.37-26.22-25.12l-14.47-89.85c-.91-4.73-2.64-7.1-5.19-7.1-2.73,0-4.46,2.37-5.19,7.1l-14.47,89.85c-2.73,16.75-11.38,25.12-25.94,25.12Zm182.73-3c-4.37,0-8.1-1.46-11.2-4.37-3.09-3.1-4.64-6.65-4.64-10.65s1.55-7.83,4.64-10.92c3.1-3.1,6.83-4.64,11.2-4.64s7.83,1.55,10.92,4.64c3.1,3.1,4.64,6.74,4.64,10.92s-1.55,7.56-4.64,10.65c-3.09,2.91-6.74,4.37-10.92,4.37Zm139.51-26.76c2,1.64,3,3.55,3,5.73,0,1.82-.82,4.01-2.46,6.55-3.82,5.28-9.1,9.56-15.84,12.84-6.74,3.1-13.65,4.64-20.76,4.64-12.02,0-21.48-3.55-28.4-10.65-6.92-7.1-10.38-16.84-10.38-29.22v-80.02h-14.75c-7.28,0-10.92-2.82-10.92-8.47,0-2.55.91-4.55,2.73-6.01,2-1.46,4.73-2.18,8.19-2.18h14.75v-46.7c0-3.46.82-6.1,2.46-7.92,1.82-2,4.37-3,7.65-3,3.1,0,5.46,1,7.1,3,1.82,1.82,2.73,4.46,2.73,7.92v46.7h37.14c3.28,0,5.83.73,7.65,2.18,2,1.27,3,3.28,3,6.01,0,5.64-3.55,8.47-10.65,8.47h-37.14v81.66c0,14.02,6.55,21.03,19.66,21.03,4.19,0,8.01-.82,11.47-2.46,3.46-1.64,6.92-4.28,10.38-7.92,2.73-2.91,5.37-4.37,7.92-4.37,1.64,0,3.46.73,5.46,2.18Zm42.36,29.77c-3.1,0-5.55-.91-7.37-2.73-1.64-2-2.46-4.73-2.46-8.19v-117.43c0-3.46.82-6.1,2.46-7.92,1.64-2,4.1-3,7.37-3,3.1,0,5.46,1,7.1,3,1.82,1.82,2.73,4.46,2.73,7.92v16.39c12.38-16.39,29.49-24.58,51.34-24.58h6.83c3.46,0,6.19.82,8.19,2.46,2,1.46,3,3.55,3,6.28s-1,4.82-3,6.28c-2,1.46-4.73,2.18-8.19,2.18h-7.65c-15.48,0-27.76,4.46-36.87,13.38-8.92,8.74-13.38,20.66-13.38,35.78v59.26c0,3.28-.91,5.92-2.73,7.92-1.64,2-4.1,3-7.37,3Zm145.49,0c-17.84,0-31.86-3.91-42.06-11.74-10.01-7.83-15.02-18.66-15.02-32.5s5.28-24.49,15.84-32.5c10.74-8.01,25.31-12.02,43.7-12.02,10.74,0,20.21,1.46,28.4,4.37,8.37,2.91,14.84,6.83,19.39,11.74v-17.48c0-10.38-3.46-18.3-10.38-23.76-6.74-5.46-16.66-8.19-29.77-8.19-16.93,0-31.59,4.01-43.97,12.02-3.1,1.82-5.64,2.73-7.65,2.73-1.82,0-3.64-.73-5.46-2.18-2-1.64-3-3.73-3-6.28,0-2.73,1.18-5.01,3.55-6.83,6.55-5.1,14.84-9.1,24.85-12.02,10.2-3.1,20.57-4.64,31.13-4.64,19.3,0,34.23,4.37,44.79,13.11,10.74,8.74,16.11,21.03,16.11,36.87v78.65c0,7.1-3.28,10.65-9.83,10.65-2.91,0-5.28-.91-7.1-2.73-1.82-2-2.73-4.55-2.73-7.65v-9.83c-11.29,13.47-28.22,20.21-50.8,20.21Zm2.46-16.66c14.2,0,25.76-2.64,34.68-7.92,8.92-5.46,13.38-12.47,13.38-21.03s-4.19-15.11-12.56-19.66c-8.19-4.73-19.84-7.1-34.96-7.1-12.74,0-22.58,2.46-29.49,7.37-6.92,4.73-10.38,11.65-10.38,20.76s3.37,15.75,10.1,20.48c6.74,4.73,16.48,7.1,29.22,7.1Zm162.7,16.66c-8.74,0-16.2-2.64-22.39-7.92-6.01-5.28-11.01-13.47-15.02-24.58l-33.86-93.67c-.36-1.46-.55-2.46-.55-3,0-2,.64-3.82,1.91-5.46,1.27-1.82,2.91-3.1,4.92-3.82.91-.36,2.28-.55,4.1-.55,2.18,0,4.01.55,5.46,1.64,1.64,1.09,2.82,2.64,3.55,4.64l34.41,94.76c2.91,7.83,5.64,13.29,8.19,16.39s5.64,4.64,9.29,4.64,6.74-1.46,9.29-4.37c2.73-3.1,5.46-8.47,8.19-16.11l34.41-95.31c1.64-4.19,4.64-6.28,9.01-6.28,3.28,0,5.92,1,7.92,3,2.18,1.82,3.28,4.1,3.28,6.83,0,.55-.18,1.55-.55,3l-34.41,94.22c-4.01,11.11-9.01,19.21-15.02,24.31-6.01,5.1-13.38,7.65-22.12,7.65Zm157.68,0c-23.67,0-41.97-6.1-54.89-18.3-12.93-12.2-19.39-29.49-19.39-51.89s6.55-38.32,19.66-50.52c13.11-12.38,31.04-18.57,53.8-18.57,14.02,0,26.49,2.28,37.41,6.83,10.92,4.37,19.39,10.65,25.4,18.84,6.19,8.01,9.29,17.2,9.29,27.58,0,7.65-2.18,13.56-6.55,17.75-4.19,4.19-10.01,6.28-17.48,6.28h-101.05c0,14.02,4.73,25.03,14.2,33.04,9.47,7.83,22.67,11.74,39.6,11.74,10.38,0,19.3-1.09,26.76-3.28,7.46-2.37,14.47-6.1,21.03-11.2,3.46-2.91,6.28-4.37,8.47-4.37,1.64,0,3.19.73,4.64,2.18,2.55,2.18,3.82,4.46,3.82,6.83,0,1.82-1.09,3.82-3.28,6.01-7.46,7.1-16.2,12.38-26.22,15.84-10.01,3.46-21.76,5.19-35.23,5.19Zm41.24-78.11c3.28,0,5.74-.64,7.37-1.91,1.64-1.46,2.46-4.01,2.46-7.65,0-6.55-2.18-12.47-6.55-17.75s-10.56-9.38-18.57-12.29c-7.83-2.91-16.75-4.37-26.76-4.37-16.2,0-29.04,4.01-38.51,12.02-9.29,7.83-13.93,18.48-13.93,31.95h94.49Zm76.5,78.11c-3.1,0-5.55-.91-7.37-2.73-1.64-2-2.46-4.73-2.46-8.19v-188.16c0-3.46.82-6.1,2.46-7.92,1.82-2,4.28-3,7.37-3s5.55,1,7.37,3c1.82,1.82,2.73,4.46,2.73,7.92v188.16c0,3.28-.91,5.92-2.73,7.92-1.64,2-4.1,3-7.37,3Z"/>
</svg>