<?xml version="1.0" encoding="UTF-8"?>
<svg id="Calque_1" data-name="Calque 1" xmlns="http://www.w3.org/2000/svg" viewBox="0 0 1067.21 1067.21">
  <defs>
    <style>
      .cls-1 {
        fill: #040512;
      }

      .cls-2 {
        fill: #fff;
      }

      .cls-3 {
        fill: #63a9eb;
      }
    </style>
  </defs>
  <circle class="cls-2" cx="533.61" cy="533.61" r="533.11"/>
  <g>
    <path class="cls-1" d="M554.84,455.79c7.07-.3,13.79-.69,20.51-.71,4.47-.01,6.81-3.18,9.13-5.92,10.7-12.63,21.03-25.57,31.7-38.22,12.38-14.68,26.83-26.75,43.53-36.52,11.27-6.6,22.81-12.43,34.92-16.99,13.44-5.07,27.39-8.27,41.89-4.66,6.94,1.73,12.42,5.6,12.62,15.06.62,28.66-5.17,55.94-17.82,81.43-10.05,20.25-23.98,37.94-41.15,52.87-2.28,1.98-4.91,4.19-7.68,1.1-2.67-2.98-.41-5.67,1.69-7.71,4.12-4.01,7.99-8.25,11.98-12.37,11.88-12.28,21.33-26.14,28.56-41.58,10.85-23.16,15.74-47.53,15.14-73.08-.07-3.14-1.31-5.09-3.95-6.16-6.31-2.56-12.86-2.12-19.39-1.1-2.61.41-3.54,2.34-4.37,4.72-4.96,14.26-9.97,28.51-17.34,41.79-4.15,7.48-8.75,14.64-14.11,21.31-1.27,1.59-2.83,2.82-4.74,3.42-1.95.61-3.51-.19-4.65-1.9-1.42-2.13-1.06-4.39.47-5.95,12.36-12.65,19.07-28.46,25.42-44.53,1.9-4.82,4.13-9.48,4.68-15.25-16.93,5.36-31.62,13.36-45.92,22.58-14.78,9.53-26.64,21.65-37.34,35.36-7.05,9.03-15.05,17.31-22.5,26.03-7.98,9.35-15.79,18.85-23.72,28.24-7.72,9.15-15.5,18.24-23.26,27.36-5.84,6.87-11.68,13.74-17.52,20.6-10.2,11.98-20.42,23.94-30.59,35.95-5.72,6.75-11.34,13.59-17.04,20.36-8.03,9.53-15.4,19.75-24.32,28.37-10.44,10.07-23.84,12.96-38,9.64-25.27-5.93-50.51-12.04-75.63-18.58-10.9-2.84-23.15,5.85-20.17,17.85,1.59,6.42,6.86,9.8,11.83,13.3,16.87,11.88,33.66,23.88,50.7,35.5,10.68,7.28,20.8,15.45,32.26,21.51,14.74,7.78,30.23,8.79,46.27,4.46,12.87-3.47,22.73-11.43,32.09-20.37,11.15-10.65,22.46-21.13,33.69-31.71,2.04-1.92,3.62-3.66,3.19-7.14-1.62-13.16-2.67-26.39-4.05-39.58-.32-3.1.5-5.6,3.71-5.77,2.77-.15,4.75,1.4,5.1,4.79,1.6,15.49,3.42,30.96,5.17,46.43,2.03,17.9,3.63,35.86,6.26,53.67,1.6,10.84,14.22,15.48,22.92,8.65,8.26-6.49,15.3-14.39,21.91-22.57,1.61-1.99,2.08-4.81,2.37-7.47,4.35-39.99,8.98-79.94,13.73-119.88,2.27-19.05,4.24-38.14,6.52-57.2.08-.65.22-1.29.3-1.94.38-3.12,1.69-5.54,5.24-5.15,3.82.42,3.97,3.52,3.68,6.39-.79,7.69-1.74,15.36-2.66,23.03-1.35,11.26-2.74,22.51-4.1,33.76-.13,1.11-.57,2.3.94,3.33,3.92-3.55,8.04-7,11.83-10.79,6.85-6.85,13.71-13.68,21.35-19.66,2.26-1.77,4.88-3.71,7.17-.35,1.93,2.83.32,5.19-1.91,7.3-7.51,7.1-14.86,14.37-22.44,21.41-5.18,4.8-10.13,9.84-15.32,14.6-2.54,2.33-3.92,4.64-4.28,7.83-1.66,14.88-3.28,29.77-4.95,44.65-2.1,18.61-4.19,37.22-6.4,55.82-.96,8.06-6.56,13.59-11.83,18.81-4.2,4.15-7.89,8.75-12.29,12.77-7.57,6.92-15.79,9.39-25.33,6.08-9.79-3.39-15.01-10.82-16.18-21.02-1.41-12.38-2.69-24.77-3.96-37.17-.15-1.48-.06-2.96-1.25-4.23-1.98-.13-3.38,1.25-4.48,2.5-9.23,10.54-20.17,19.3-30.22,28.97-24.01,23.11-54.95,30.65-87.3,14.07-9.48-4.86-17.82-11.64-26.49-17.81-7.74-5.51-15.53-10.96-23.31-16.41-9.66-6.75-19.34-13.46-29.01-20.21-3.35-2.34-6.58-4.88-10.01-7.09-7.63-4.93-10.16-12.32-9.81-20.81.39-9.34,5.37-15.97,13.57-20.22,6.16-3.19,12.6-3.07,19.16-1.42,23.87,5.99,47.69,12.17,71.63,17.84,15.2,3.59,27.82-.45,37.99-13.15,7.14-8.92,14.7-17.58,22.29-26.18,6.33-7.17,13.02-14.19,18.62-22.78-4.27-1.92-8.37-2.12-12.3-2.94-10.28-2.17-21.03-2.33-30.77-6.73-11.15-5.04-16.74-19.07-11.71-30.38,3.58-8.06,8.22-15.65,12.38-23.46,1.93-3.62,3.88-7.23,5.76-10.88,5.8-11.25,15.74-14.15,27.51-14.55,19.64-.67,39.26-2,58.89-3.04,1.64-.09,3.27-.1,5.27-.2ZM453.08,512.09c-3.44,7.88,3.56,18.57,11.76,19.83,13.17,2.02,26.27,4.43,39.39,6.73,2.5.44,4.47-.1,6.13-2.11,4.99-6.06,10.01-12.1,15.11-18.09,8.27-9.72,16.65-19.35,24.91-29.08,5.61-6.62,11.11-13.33,16.6-20.05.79-.97,1.92-2.02,1.27-3.51-.66-1.54-2.11-1.32-3.42-1.26-26.84,1.37-53.68,2.65-80.51,4.19-5.19.3-9.57,3.35-12.06,7.7-6.58,11.5-12.61,23.32-19.19,35.65Z"/>
    <path class="cls-3" d="M727.47,820.83c-57.49,0-100.77-49.67-132.85-86.48l-1.6-1.83c-1.71-1.96-1.5-4.93.45-6.64,1.96-1.71,4.93-1.5,6.64.45l1.6,1.84c32.56,37.36,77.15,88.53,134.82,82.8,33.72-3.35,68.77-24.99,101.34-62.59,30.2-34.85,57.31-81.85,78.39-135.91,23.58-60.48,37.45-124.66,39.04-180.73,1.72-60.67-10.77-107.78-36.14-136.23-18.5-20.76-43.71-30.99-70.97-28.81-36.12,2.89-70.76,26.35-95.05,64.36-1.4,2.19-4.31,2.83-6.5,1.43-2.19-1.4-2.83-4.31-1.43-6.5,25.89-40.52,63.15-65.55,102.23-68.68,30.26-2.42,58.23,8.92,78.74,31.93,26.99,30.28,40.31,79.65,38.52,142.76-1.62,57.12-15.71,122.42-39.68,183.88-21.47,55.05-49.15,103-80.05,138.65-34.18,39.44-71.36,62.19-107.52,65.79-3.38.34-6.71.5-9.99.5Z"/>
    <path class="cls-3" d="M340.14,809.25c-6.22,0-12.48-.6-18.76-1.82-42.18-8.13-84.83-43.41-123.34-102.02-34.47-52.45-62.79-119.33-79.76-188.32-13.27-53.95-18.4-104.74-14.82-146.88,3.95-46.6,18.75-81.36,42.78-100.51,24.62-19.62,52.89-26.91,84.03-21.66,36.19,6.1,75.4,28.78,116.54,67.41,35.54,33.38,71.15,77.62,102.97,127.94,1.39,2.2.73,5.1-1.46,6.49-2.2,1.39-5.1.73-6.49-1.46-31.4-49.66-66.48-93.27-101.45-126.11-39.76-37.34-77.33-59.2-111.66-64.99-28.39-4.79-54.16,1.86-76.6,19.74-21.96,17.51-35.54,49.99-39.27,93.95-3.49,41.13,1.55,90.87,14.58,143.84,16.72,67.97,44.6,133.81,78.49,185.4,37.08,56.44,77.63,90.31,117.25,97.95,42.06,8.11,81.89-13.56,118.39-64.43,1.51-2.11,4.45-2.59,6.57-1.08,2.11,1.51,2.59,4.45,1.08,6.56-19.82,27.62-41.06,47.34-63.15,58.59-14.91,7.6-30.28,11.41-45.9,11.41Z"/>
  </g>
</svg>