<svg width="36" height="35" viewBox="0 0 36 35" fill="none" xmlns="http://www.w3.org/2000/svg">
<g clip-path="url(#clip0_13_159)">
<path d="M28.9375 17.5C28.8414 17.5 28.7482 17.5102 28.6531 17.5144L27.009 9.84375H31.125V7.65625H25.6562C25.4931 7.6562 25.332 7.69266 25.1847 7.76294C25.0375 7.83323 24.9078 7.93557 24.8053 8.06246C24.7027 8.18935 24.6298 8.33759 24.592 8.49629C24.5542 8.655 24.5523 8.82017 24.5866 8.97969L25.2406 12.0313H14.0485L12.9547 8.75H15.8125V6.5625H8.15625V8.75H10.65L11.7887 12.1658L8.97776 17.7868C7.70207 17.3961 6.3376 17.4035 5.06622 17.808C3.79485 18.2125 2.67697 18.995 1.86161 20.051C1.04624 21.1071 0.572127 22.3865 0.502456 23.7189C0.432786 25.0513 0.770871 26.3732 1.47165 27.5085C2.17242 28.6439 3.2026 29.5386 4.42485 30.0735C5.6471 30.6085 7.00336 30.7581 8.31284 30.5026C9.62232 30.2471 10.8228 29.5985 11.7543 28.6433C12.6858 27.6882 13.304 26.4717 13.5266 25.1563H16.3812C16.7094 25.157 17.0334 25.0836 17.3291 24.9416C17.6249 24.7995 17.8847 24.5925 18.0892 24.3359L25.8094 14.6845L26.5133 17.97C25.0003 18.5763 23.7677 19.7248 23.0562 21.1913C22.3447 22.6578 22.2056 24.3369 22.6659 25.9005C23.1262 27.4641 24.1529 28.8 25.5455 29.6471C26.9381 30.4941 28.5964 30.7916 30.1966 30.4814C31.7968 30.1712 33.2238 29.2755 34.1989 27.9694C35.174 26.6633 35.6272 25.0405 35.4698 23.4182C35.3125 21.7958 34.5559 20.2904 33.348 19.196C32.14 18.1017 30.5675 17.4969 28.9375 17.5ZM7.0625 28.4375C6.44815 28.4392 5.84033 28.3115 5.27861 28.0627C4.7169 27.8138 4.21389 27.4495 3.80232 26.9934C3.39076 26.5373 3.07987 25.9996 2.88991 25.4153C2.69994 24.8311 2.63515 24.2134 2.69976 23.6024C2.76437 22.9915 2.95692 22.401 3.26489 21.8694C3.57286 21.3378 3.98933 20.877 4.48719 20.5171C4.98505 20.1571 5.55315 19.9061 6.15448 19.7803C6.75581 19.6544 7.3769 19.6567 7.97731 19.7868L6.08414 23.5733L6.09398 23.5781C6.01474 23.7275 5.97183 23.8934 5.96875 24.0625C5.96706 24.3087 6.04904 24.5481 6.20125 24.7416C6.35346 24.935 6.56687 25.0711 6.80652 25.1274C7.04616 25.1836 7.29781 25.1569 7.52025 25.0514C7.74268 24.946 7.9227 24.7681 8.0308 24.5469L8.04086 24.5517L9.92616 20.7813C10.6006 21.3629 11.0806 22.1373 11.3014 23.0002C11.5223 23.863 11.4734 24.7727 11.1614 25.6069C10.8494 26.4411 10.2892 27.1597 9.55635 27.6658C8.82349 28.1719 7.95312 28.4412 7.0625 28.4375ZM13.5266 22.9688C13.2402 21.2856 12.309 19.7804 10.9308 18.7727L12.7668 15.1005L15.3892 22.9688H13.5266ZM17.3084 21.8094L14.7778 14.2188H23.3806L17.3084 21.8094ZM28.9375 28.4375C27.9528 28.4404 26.9961 28.11 26.223 27.5001C25.4499 26.8902 24.9059 26.0366 24.6795 25.0783C24.4531 24.1199 24.5576 23.1132 24.9761 22.2218C25.3945 21.3304 26.1023 20.6068 26.9842 20.1688L27.8678 24.2922L27.8897 24.2874C27.9378 24.5306 28.0683 24.7498 28.2592 24.908C28.45 25.0663 28.6896 25.154 28.9375 25.1563C29.2276 25.1563 29.5058 25.041 29.7109 24.8359C29.916 24.6308 30.0312 24.3526 30.0312 24.0625C30.0245 23.9861 30.0093 23.9107 29.9859 23.8376L30.0077 23.8328L29.1233 19.7062C30.2661 19.7526 31.345 20.2455 32.1283 21.0788C32.9116 21.9122 33.3368 23.0195 33.3125 24.163C33.2881 25.3064 32.8162 26.3947 31.9982 27.194C31.1801 27.9932 30.0812 28.4397 28.9375 28.4375Z" fill="#F2963F"/>
</g>
<defs>
<clipPath id="clip0_13_159">
<rect width="35" height="35" fill="white" transform="translate(0.5)"/>
</clipPath>
</defs>
</svg>
