<svg width="35" height="35" viewBox="0 0 35 35" fill="none" xmlns="http://www.w3.org/2000/svg">
<g clip-path="url(#clip0_178_2)">
<path d="M27.104 28.4375L28.4047 23.2337C28.4449 23.0724 28.4479 22.9042 28.4134 22.7416C28.3789 22.5791 28.3078 22.4266 28.2056 22.2956C28.1033 22.1646 27.9725 22.0587 27.8232 21.9858C27.6739 21.9129 27.5099 21.875 27.3438 21.875H21.875V18.5938H27.3438C27.5273 18.5938 27.7079 18.5476 27.8689 18.4595C28.0299 18.3714 28.1662 18.2442 28.2651 18.0896C28.3641 17.9351 28.4225 17.758 28.4351 17.5749C28.4477 17.3918 28.414 17.2085 28.3371 17.0418L21.7746 2.82308C21.6956 2.65204 21.5739 2.50428 21.4211 2.39409C21.2683 2.28391 21.0896 2.21503 20.9024 2.19413C20.7151 2.17323 20.5257 2.20102 20.3524 2.2748C20.179 2.34857 20.0277 2.46585 19.9129 2.61527L8.97695 16.8335C8.85252 16.9954 8.77589 17.1889 8.75574 17.392C8.73558 17.5952 8.77271 17.8 8.86291 17.9832C8.95311 18.1664 9.09279 18.3206 9.26613 18.4285C9.43948 18.5364 9.63956 18.5937 9.84375 18.5938H19.6875V21.875H7.65625C7.49009 21.875 7.32612 21.9129 7.17679 21.9858C7.02746 22.0587 6.8967 22.1646 6.79444 22.2956C6.69217 22.4266 6.62109 22.5791 6.58659 22.7416C6.55208 22.9042 6.55507 23.0724 6.59531 23.2337L7.896 28.4375H2.1875V30.625H32.8125V28.4375H27.104ZM21.875 8.26077L25.6342 16.4063H21.875V8.26077ZM12.0649 16.4063L19.6875 6.49688V16.4063H12.0649ZM24.8491 28.4375H10.1509L9.05712 24.0625H25.9429L24.8491 28.4375Z" fill="#F2963F"/>
</g>
<defs>
<clipPath id="clip0_178_2">
<rect width="35" height="35" fill="white"/>
</clipPath>
</defs>
</svg>
