<svg width="32" height="32" viewBox="0 0 32 32" fill="none" xmlns="http://www.w3.org/2000/svg">
<g clip-path="url(#clip0_204_2)">
<mask id="mask0_204_2" style="mask-type:luminance" maskUnits="userSpaceOnUse" x="0" y="0" width="32" height="32">
<path d="M32 0H0V32H32V0Z" fill="white"/>
</mask>
<g mask="url(#mask0_204_2)">
<path d="M29 11H27V15H29V11Z" fill="#F2963F"/>
<path d="M5 11H3V15H5V11Z" fill="#F2963F"/>
<path d="M22 20H20V22H22V20Z" fill="#F2963F"/>
<path d="M12 20H10V22H12V20Z" fill="#F2963F"/>
<path d="M21 4H11C9.6744 4.00156 8.40353 4.52885 7.46619 5.46619C6.52885 6.40353 6.00156 7.6744 6 9V23C6.00061 23.5302 6.21152 24.0386 6.58646 24.4135C6.9614 24.7885 7.46975 24.9994 8 25V28H10V25H22V28H24V25C24.5302 24.9993 25.0385 24.7883 25.4134 24.4134C25.7883 24.0385 25.9993 23.5302 26 23V9C25.9984 7.6744 25.4712 6.40353 24.5338 5.46619C23.5965 4.52885 22.3256 4.00156 21 4ZM24 10L24.0009 16H8V10H24ZM11 6H21C21.6184 6.0019 22.221 6.19516 22.7252 6.55326C23.2293 6.91136 23.6103 7.41674 23.8157 8H8.1843C8.38974 7.41674 8.77068 6.91136 9.27483 6.55326C9.77898 6.19516 10.3816 6.0019 11 6ZM8 23V18H24.0012L24.002 23H8Z" fill="#F2963F"/>
</g>
</g>
<defs>
<clipPath id="clip0_204_2">
<rect width="32" height="32" fill="white"/>
</clipPath>
</defs>
</svg>
