<svg width="32" height="32" viewBox="0 0 32 32" fill="none" xmlns="http://www.w3.org/2000/svg">
<g clip-path="url(#clip0_181_3)">
<mask id="mask0_181_3" style="mask-type:luminance" maskUnits="userSpaceOnUse" x="0" y="0" width="32" height="32">
<path d="M32 0H0V32H32V0Z" fill="white"/>
</mask>
<g mask="url(#mask0_181_3)">
<path d="M19 19H13V21H19V19Z" fill="#F2963F"/>
<path d="M25.4409 14L24.1687 9.45C24.0479 9.03295 23.7952 8.66627 23.4485 8.40487C23.1018 8.14347 22.6798 8.00142 22.2456 8H9.7544C9.32012 8.00145 8.89799 8.14359 8.55129 8.40513C8.20458 8.66667 7.95197 9.03351 7.8313 9.4507L6.5315 14H4V16H6V23C6.00066 23.5302 6.21159 24.0386 6.58652 24.4135C6.96145 24.7884 7.46977 24.9993 8 25V28H10V25H22V28H24V25C24.5302 24.9993 25.0386 24.7884 25.4135 24.4135C25.7884 24.0386 25.9993 23.5302 26 23V16H28V14H25.4409ZM9.7544 10H22.2458L23.6743 15H8.3257L9.7544 10ZM24 21V23H8V21H10V19H8V17H24V19H22V21H24Z" fill="#F2963F"/>
</g>
</g>
<defs>
<clipPath id="clip0_181_3">
<rect width="32" height="32" fill="white"/>
</clipPath>
</defs>
</svg>
