<svg width="36" height="35" viewBox="0 0 36 35" fill="none" xmlns="http://www.w3.org/2000/svg">
<g clip-path="url(#clip0_15_198)">
<path d="M18 4.375C20.5959 4.375 23.1335 5.14477 25.2919 6.58696C27.4503 8.02915 29.1325 10.079 30.1259 12.4773C31.1193 14.8756 31.3792 17.5146 30.8728 20.0606C30.3664 22.6066 29.1163 24.9452 27.2808 26.7808C25.4452 28.6163 23.1066 29.8664 20.5606 30.3728C18.0146 30.8792 15.3756 30.6193 12.9773 29.6259C10.579 28.6325 8.52916 26.9503 7.08697 24.7919C5.64477 22.6335 4.87501 20.0959 4.87501 17.5C4.87501 14.019 6.25782 10.6806 8.71923 8.21922C11.1806 5.75781 14.519 4.375 18 4.375ZM18 2.1875C14.9715 2.1875 12.011 3.08556 9.49284 4.76812C6.97471 6.45068 5.01207 8.84217 3.8531 11.6402C2.69413 14.4382 2.3909 17.517 2.98173 20.4873C3.57257 23.4577 5.03094 26.1861 7.17243 28.3276C9.31393 30.4691 12.0424 31.9274 15.0127 32.5183C17.983 33.1091 21.0619 32.8059 23.8598 31.6469C26.6578 30.4879 29.0493 28.5253 30.7319 26.0072C32.4144 23.489 33.3125 20.5285 33.3125 17.5C33.3125 13.4389 31.6992 9.54408 28.8276 6.67243C25.9559 3.80078 22.0611 2.1875 18 2.1875Z" fill="#F2963F"/>
<path d="M25.6562 11.3859L24.1141 9.84375L19.4109 14.5469C18.7986 14.2544 18.1107 14.159 17.442 14.2738C16.7732 14.3885 16.1564 14.7078 15.6766 15.1876C15.1968 15.6674 14.8776 16.2841 14.7628 16.9529C14.6481 17.6217 14.7435 18.3096 15.0359 18.9219L10.3438 23.6141L11.8859 25.1562L16.5891 20.4531C17.2014 20.7456 17.8893 20.841 18.558 20.7262C19.2268 20.6115 19.8436 20.2922 20.3234 19.8124C20.8032 19.3326 21.1224 18.7159 21.2372 18.0471C21.3519 17.3783 21.2565 16.6904 20.9641 16.0781L25.6562 11.3859ZM19.0938 17.5C19.0938 17.7163 19.0296 17.9278 18.9094 18.1077C18.7892 18.2875 18.6184 18.4277 18.4186 18.5105C18.2187 18.5933 17.9988 18.6149 17.7866 18.5727C17.5745 18.5305 17.3796 18.4264 17.2266 18.2734C17.0736 18.1204 16.9695 17.9255 16.9273 17.7134C16.8851 17.5012 16.9067 17.2813 16.9895 17.0814C17.0723 16.8816 17.2125 16.7108 17.3923 16.5906C17.5722 16.4704 17.7837 16.4062 18 16.4062C18.2901 16.4062 18.5683 16.5215 18.7734 16.7266C18.9785 16.9317 19.0938 17.2099 19.0938 17.5Z" fill="#F2963F"/>
<path d="M18 9.84375C18.9061 9.84375 19.6406 9.10922 19.6406 8.20312C19.6406 7.29703 18.9061 6.5625 18 6.5625C17.0939 6.5625 16.3594 7.29703 16.3594 8.20312C16.3594 9.10922 17.0939 9.84375 18 9.84375Z" fill="#F2963F"/>
</g>
<defs>
<clipPath id="clip0_15_198">
<rect width="35" height="35" fill="white" transform="translate(0.5)"/>
</clipPath>
</defs>
</svg>
