<svg width="36" height="35" viewBox="0 0 36 35" fill="none" xmlns="http://www.w3.org/2000/svg">
<g clip-path="url(#clip0_13_177)">
<path d="M29.5783 7.20333C29.3757 6.99953 29.1347 6.83796 28.8693 6.72796C28.6038 6.61796 28.3191 6.56172 28.0318 6.5625H19.0938V2.1875H16.9062V13.125H7.96823C7.68088 13.1242 7.39622 13.1805 7.13075 13.2905C6.86527 13.4005 6.62426 13.562 6.42167 13.7658L2.6875 17.5L6.42167 21.2342C6.62426 21.438 6.86527 21.5995 7.13075 21.7095C7.39622 21.8195 7.68088 21.8758 7.96823 21.875H16.9062V32.8125H19.0938V15.3125H28.0318C28.3191 15.3133 28.6038 15.257 28.8693 15.147C29.1347 15.037 29.3757 14.8755 29.5783 14.6717L33.3125 10.9375L29.5783 7.20333ZM7.96823 19.6875L5.78073 17.5L7.96823 15.3125H16.9062V19.6875H7.96823ZM28.0318 13.125H19.0938V8.75H28.0318L30.2193 10.9375L28.0318 13.125Z" fill="#F2963F"/>
</g>
<defs>
<clipPath id="clip0_13_177">
<rect width="35" height="35" fill="white" transform="translate(0.5)"/>
</clipPath>
</defs>
</svg>
