<svg width="35" height="35" viewBox="0 0 35 35" fill="none" xmlns="http://www.w3.org/2000/svg">
<g clip-path="url(#clip0_28_288)">
<path d="M17.5 2.1875C14.4715 2.1875 11.511 3.08556 8.99284 4.76812C6.47471 6.45068 4.51207 8.84217 3.3531 11.6402C2.19413 14.4382 1.8909 17.517 2.48173 20.4873C3.07257 23.4577 4.53094 26.1861 6.67243 28.3276C8.81393 30.4691 11.5424 31.9274 14.5127 32.5183C17.483 33.1091 20.5619 32.8059 23.3598 31.6469C26.1578 30.4879 28.5493 28.5253 30.2319 26.0072C31.9144 23.489 32.8125 20.5285 32.8125 17.5C32.8079 13.4403 31.1932 9.54814 28.3225 6.67748C25.4519 3.80682 21.5597 2.19207 17.5 2.1875ZM4.39688 17.9309L5.86076 18.4185L7.65626 21.1123V22.5157C7.65626 22.8058 7.7715 23.084 7.97662 23.2891L10.9375 26.25V28.8493C9.01029 27.734 7.39866 26.1466 6.2544 24.2365C5.11013 22.3263 4.47089 20.1564 4.39688 17.9309ZM17.5 30.625C16.5539 30.6232 15.6107 30.5188 14.6871 30.3136L15.3125 28.4375L17.2863 23.5029C17.3522 23.3382 17.377 23.1599 17.3587 22.9835C17.3403 22.807 17.2793 22.6376 17.1809 22.49L15.6372 20.1745C15.5374 20.0247 15.402 19.9019 15.2433 19.8169C15.0845 19.7319 14.9072 19.6875 14.7271 19.6875H9.33494L7.96973 17.6393L10.2967 15.3125H12.0313V17.5H14.2188V14.5093L18.4496 7.10511L16.5504 6.01989L15.6154 7.65625H12.6166L11.4288 5.87464C13.0234 5.03308 14.7759 4.53315 16.5746 4.40677C18.3732 4.28039 20.1784 4.53032 21.875 5.14062V8.75C21.875 9.04008 21.9902 9.31828 22.1954 9.5234C22.4005 9.72852 22.6787 9.84375 22.9688 9.84375H24.5709C24.751 9.84376 24.9282 9.79931 25.087 9.71434C25.2458 9.62938 25.3811 9.50653 25.481 9.3567L26.4401 7.91798C27.6896 9.08295 28.7003 10.48 29.4159 12.0312H24.9594C24.7065 12.0312 24.4615 12.1188 24.2659 12.2792C24.0704 12.4395 23.9364 12.6626 23.8868 12.9105L23.0971 17.8005C23.0599 18.0304 23.0972 18.2663 23.2034 18.4736C23.3096 18.681 23.4793 18.849 23.6877 18.9532L27.3438 20.7812L28.0931 25.2172C26.8792 26.8903 25.2866 28.2524 23.4455 29.1923C21.6044 30.1322 19.5671 30.6231 17.5 30.625Z" fill="#F2963F"/>
</g>
<defs>
<clipPath id="clip0_28_288">
<rect width="35" height="35" fill="white"/>
</clipPath>
</defs>
</svg>
