<svg width="32" height="32" viewBox="0 0 32 32" fill="none" xmlns="http://www.w3.org/2000/svg">
<g clip-path="url(#clip0_181_10)">
<mask id="mask0_181_10" style="mask-type:luminance" maskUnits="userSpaceOnUse" x="0" y="0" width="32" height="32">
<path d="M32 0H0V32H32V0Z" fill="white"/>
</mask>
<g mask="url(#mask0_181_10)">
<path d="M30 8V6H8V8H18V12H4V8H2V16H4V14H10.2192L12.2725 22.2129C12.5418 23.2953 13.1657 24.2563 14.0448 24.9427C14.924 25.6291 16.0076 26.0013 17.123 26H26C27.0605 25.9988 28.0772 25.577 28.8271 24.8271C29.577 24.0772 29.9988 23.0605 30 22V19.3623C29.9998 18.8945 29.8356 18.4416 29.5361 18.0823L25.0684 12.72C24.8809 12.4945 24.6459 12.3131 24.3803 12.1886C24.1147 12.0642 23.825 11.9998 23.5317 12H20V8H30ZM26 24H17.123C16.4538 24.0008 15.8036 23.7774 15.2761 23.3655C14.7487 22.9536 14.3744 22.377 14.213 21.7275L12.2808 14H18V20H28V22C27.9994 22.5302 27.7885 23.0386 27.4135 23.4135C27.0386 23.7885 26.5302 23.9994 26 24ZM23.5317 14L26.865 18H20V14H23.5317Z" fill="#F2963F"/>
</g>
</g>
<defs>
<clipPath id="clip0_181_10">
<rect width="32" height="32" fill="white"/>
</clipPath>
</defs>
</svg>
