<svg width="35" height="35" viewBox="0 0 35 35" fill="none" xmlns="http://www.w3.org/2000/svg">
<g clip-path="url(#clip0_15_180)">
<path d="M17.5 32.8125L8.27368 21.9311C8.22129 21.8687 7.89284 21.4373 7.89284 21.4373C6.31664 19.3612 5.46507 16.8254 5.46876 14.2188C5.46876 11.0279 6.73634 7.96767 8.99263 5.71137C11.2489 3.45507 14.3091 2.1875 17.5 2.1875C20.6909 2.1875 23.7511 3.45507 26.0074 5.71137C28.2637 7.96767 29.5313 11.0279 29.5313 14.2188C29.5352 16.8243 28.6842 19.3592 27.1088 21.4345L27.1072 21.4373C27.1072 21.4373 26.7791 21.8687 26.7302 21.9266L17.5 32.8125ZM9.63868 20.1195C9.63978 20.1203 9.89397 20.4566 9.95215 20.529L17.5 29.4305L25.0578 20.5165C25.1058 20.4561 25.3622 20.1173 25.3628 20.1165C26.6504 18.4202 27.3463 16.3484 27.3438 14.2188C27.3438 11.608 26.3067 9.10423 24.4606 7.25817C22.6145 5.41211 20.1107 4.375 17.5 4.375C14.8893 4.375 12.3855 5.41211 10.5394 7.25817C8.69337 9.10423 7.65626 11.608 7.65626 14.2188C7.65384 16.3496 8.35023 18.4224 9.63868 20.1195Z" fill="#F2963F"/>
<path d="M22.9688 19.6875H20.7812V10.9375H14.2188V19.6875H12.0312V10.9375C12.0319 10.3575 12.2625 9.80148 12.6726 9.39138C13.0827 8.98127 13.6388 8.75061 14.2188 8.75H20.7812C21.3612 8.75061 21.9173 8.98127 22.3274 9.39138C22.7375 9.80148 22.9681 10.3575 22.9688 10.9375V19.6875Z" fill="#F2963F"/>
<path d="M18.5938 17.5H16.4062V19.6875H18.5938V17.5Z" fill="#F2963F"/>
<path d="M18.5938 13.125H16.4062V15.3125H18.5938V13.125Z" fill="#F2963F"/>
</g>
<defs>
<clipPath id="clip0_15_180">
<rect width="35" height="35" fill="white"/>
</clipPath>
</defs>
</svg>
