<svg width="40" height="40" viewBox="0 0 40 40" fill="none" xmlns="http://www.w3.org/2000/svg">
<g clip-path="url(#clip0_26_717)">
<path d="M30.7321 8.23237C30.5005 7.99944 30.225 7.81477 29.9216 7.68905C29.6181 7.56334 29.2927 7.49908 28.9643 7.5H20V2.5H17.5V7.5H7.5C6.83721 7.50083 6.20181 7.76448 5.73315 8.23315C5.26448 8.70181 5.00083 9.33721 5 10V17.5C5.00083 18.1628 5.26448 18.7982 5.73315 19.2669C6.20181 19.7355 6.83721 19.9992 7.5 20H17.5V37.5H20V20H28.9643C29.2927 20.0009 29.6181 19.9367 29.9216 19.8109C30.225 19.6852 30.5005 19.5006 30.7321 19.2676L36.25 13.75L30.7321 8.23237ZM28.9643 17.5H7.5V10H28.9645L32.7145 13.75L28.9643 17.5Z" fill="#F2963F"/>
</g>
<defs>
<clipPath id="clip0_26_717">
<rect width="40" height="40" fill="white"/>
</clipPath>
</defs>
</svg>
