<svg width="32" height="32" viewBox="0 0 32 32" fill="none" xmlns="http://www.w3.org/2000/svg">
<g clip-path="url(#clip0_181_16)">
<mask id="mask0_181_16" style="mask-type:luminance" maskUnits="userSpaceOnUse" x="0" y="0" width="32" height="32">
<path d="M32 0H0V32H32V0Z" fill="white"/>
</mask>
<g mask="url(#mask0_181_16)">
<path d="M28.5845 14.585L25.4645 12.7129C24.6876 12.2463 23.7984 11.9999 22.8921 12H7.7808L7.16 9.5151C7.05223 9.08206 6.80255 8.69757 6.45079 8.42297C6.09904 8.14836 5.66545 7.99946 5.2192 8H4C3.46975 8.00061 2.9614 8.21152 2.58646 8.58646C2.21152 8.9614 2.00061 9.46976 2 10V17C2.00087 17.7954 2.31722 18.5579 2.87964 19.1204C3.44206 19.6828 4.20462 19.9991 5 20H12V26C12.0006 26.5302 12.2115 27.0386 12.5865 27.4135C12.9614 27.7885 13.4698 27.9994 14 28H15.3071C15.714 27.9988 16.111 27.8741 16.4454 27.6423C16.7799 27.4106 17.036 27.0827 17.18 26.7021L19.6929 20H27.0845C27.7221 20 28.3421 19.7911 28.8495 19.4051C29.357 19.0191 29.7239 18.4775 29.8941 17.863C30.0643 17.2486 30.0284 16.5953 29.7919 16.0033C29.5553 15.4112 29.1312 14.913 28.5845 14.585ZM27.0845 18H18.3071L15.3071 26H14V18H5C4.73486 17.9998 4.48064 17.8943 4.29316 17.7068C4.10567 17.5194 4.00024 17.2651 4 17V10H5.2192L6.2192 14H10V16H12V14H15V16H17V14H20V16H22V14H22.8921C23.4358 14 23.9693 14.1478 24.4355 14.4277L27.5555 16.2998C27.727 16.4029 27.86 16.5593 27.9342 16.7452C28.0083 16.931 28.0195 17.1361 27.9661 17.3289C27.9126 17.5217 27.7975 17.6918 27.6382 17.8129C27.479 17.9341 27.2846 17.9999 27.0845 18Z" fill="#F2963F"/>
<path d="M14 4.00001H15.3228L17.7228 10H19.8773L17.18 3.25731C17.0326 2.88538 16.7766 2.56649 16.4453 2.34221C16.114 2.11794 15.7229 1.99869 15.3228 2.00001H14C13.4698 2.00062 12.9614 2.21153 12.5865 2.58647C12.2115 2.96141 12.0006 3.46976 12 4.00001V10H14V4.00001Z" fill="#F2963F"/>
</g>
</g>
<defs>
<clipPath id="clip0_181_16">
<rect width="32" height="32" fill="white"/>
</clipPath>
</defs>
</svg>
