<svg width="32" height="32" viewBox="0 0 32 32" fill="none" xmlns="http://www.w3.org/2000/svg">
<g clip-path="url(#clip0_181_23)">
<mask id="mask0_181_23" style="mask-type:luminance" maskUnits="userSpaceOnUse" x="0" y="0" width="32" height="32">
<path d="M32 0H0V32H32V0Z" fill="white"/>
</mask>
<g mask="url(#mask0_181_23)">
<path d="M26 28C25.2089 28 24.4355 27.7654 23.7777 27.3259C23.1199 26.8864 22.6072 26.2616 22.3045 25.5307C22.0017 24.7998 21.9225 23.9956 22.0769 23.2196C22.2312 22.4437 22.6122 21.731 23.1716 21.1716C23.731 20.6122 24.4437 20.2312 25.2196 20.0769C25.9956 19.9225 26.7998 20.0017 27.5307 20.3045C28.2616 20.6072 28.8864 21.1199 29.3259 21.7777C29.7654 22.4355 30 23.2089 30 24C29.9988 25.0605 29.577 26.0772 28.8271 26.8271C28.0772 27.577 27.0605 27.9988 26 28ZM26 22C25.6044 22 25.2178 22.1173 24.8889 22.3371C24.56 22.5568 24.3036 22.8692 24.1522 23.2346C24.0009 23.6001 23.9613 24.0022 24.0384 24.3902C24.1156 24.7781 24.3061 25.1345 24.5858 25.4142C24.8655 25.6939 25.2219 25.8844 25.6098 25.9616C25.9978 26.0387 26.3999 25.9991 26.7654 25.8478C27.1308 25.6964 27.4432 25.44 27.6629 25.1111C27.8827 24.7822 28 24.3956 28 24C27.9994 23.4698 27.7885 22.9614 27.4135 22.5865C27.0386 22.2115 26.5302 22.0006 26 22Z" fill="#F2963F"/>
<path d="M24 8H18V10H24C24.2652 10 24.5196 10.1054 24.7071 10.2929C24.8946 10.4804 25 10.7348 25 11C25 11.2652 24.8946 11.5196 24.7071 11.7071C24.5196 11.8946 24.2652 12 24 12H21C20.8521 12.0001 20.706 12.033 20.5723 12.0963C20.4387 12.1597 20.3207 12.2519 20.227 12.3663C20.1332 12.4807 20.066 12.6145 20.0303 12.758C19.9945 12.9016 19.991 13.0513 20.02 13.1963L20.9441 17.8174L18.4338 22H15.7438L13.1715 13.4248C13.0495 13.0119 12.7968 12.6498 12.4514 12.3928C12.1059 12.1359 11.6864 11.998 11.2559 12H6V14H11.2561L11.8561 16H7C5.67438 16.0015 4.40349 16.5288 3.46613 17.4661C2.52878 18.4035 2.00151 19.6744 2 21V23C2 23.2652 2.10536 23.5196 2.29289 23.7071C2.48043 23.8946 2.73478 24 3 24H4C4 25.0609 4.42143 26.0783 5.17157 26.8284C5.92172 27.5786 6.93913 28 8 28C9.06087 28 10.0783 27.5786 10.8284 26.8284C11.5786 26.0783 12 25.0609 12 24H19C19.1727 24 19.3424 23.9553 19.4926 23.8702C19.6429 23.7852 19.7686 23.6626 19.8574 23.5146L22.8574 18.5146C22.9855 18.3012 23.0294 18.0477 22.9805 17.8037L22.22 14H24C24.7956 14 25.5587 13.6839 26.1213 13.1213C26.6839 12.5587 27 11.7956 27 11C27 10.2044 26.6839 9.44129 26.1213 8.87868C25.5587 8.31607 24.7956 8 24 8ZM8 26C7.46977 25.9993 6.96145 25.7884 6.58652 25.4135C6.21159 25.0386 6.00066 24.5302 6 24H10C9.99934 24.5302 9.78841 25.0386 9.41348 25.4135C9.03855 25.7884 8.53023 25.9993 8 26ZM4 22V21C4.00087 20.2046 4.31722 19.4421 4.87964 18.8796C5.44206 18.3172 6.20462 18.0009 7 18H12.4561L13.6561 22H4Z" fill="#F2963F"/>
</g>
</g>
<defs>
<clipPath id="clip0_181_23">
<rect width="32" height="32" fill="white"/>
</clipPath>
</defs>
</svg>
