<svg width="32" height="32" viewBox="0 0 32 32" fill="none" xmlns="http://www.w3.org/2000/svg">
<g clip-path="url(#clip0_181_36)">
<mask id="mask0_181_36" style="mask-type:luminance" maskUnits="userSpaceOnUse" x="0" y="0" width="32" height="32">
<path d="M32 0H0V32H32V0Z" fill="white"/>
</mask>
<g mask="url(#mask0_181_36)">
<path d="M30 25H2V27H4V29H6V27H11V29H13V27H18V29H20V27H25V29H27V27H30V25Z" fill="#F2963F"/>
<path d="M29.7144 16.59L18.1494 8.64001C15.651 6.91693 12.6869 5.99604 9.6519 6.00001H2V8.00001H9.6519C12.2821 7.99653 14.851 8.7943 17.0166 10.2871L18.0532 11H9V13H20.9624L28.5811 18.2378C28.751 18.3546 28.8791 18.5226 28.9467 18.7174C29.0143 18.9122 29.0178 19.1234 28.9567 19.3203C28.8956 19.5172 28.7731 19.6894 28.6071 19.8117C28.4411 19.934 28.2404 20 28.0342 20H2V22H28.0342C28.6671 21.9998 29.2833 21.7973 29.7928 21.4219C30.3023 21.0465 30.6784 20.5179 30.8661 19.9136C31.0537 19.3092 31.0432 18.6606 30.836 18.0626C30.6287 17.4646 30.2358 16.9486 29.7144 16.59Z" fill="#F2963F"/>
</g>
</g>
<defs>
<clipPath id="clip0_181_36">
<rect width="32" height="32" fill="white"/>
</clipPath>
</defs>
</svg>
