<svg width="32" height="32" viewBox="0 0 32 32" fill="none" xmlns="http://www.w3.org/2000/svg">
<g clip-path="url(#clip0_181_49)">
<mask id="mask0_181_49" style="mask-type:luminance" maskUnits="userSpaceOnUse" x="0" y="0" width="32" height="32">
<path d="M32 0H0V32H32V0Z" fill="white"/>
</mask>
<g mask="url(#mask0_181_49)">
<path d="M21.6772 14L20.4316 10.8857C20.2105 10.3279 19.8265 9.84967 19.3296 9.51331C18.8327 9.17695 18.246 8.99808 17.646 9.00002H13.5542C13.0103 9.00009 12.4767 9.14792 12.0103 9.42772L7 12.4336V18H9V13.5664L12 11.7664V23.6973L8.5383 28.8906L10.2024 30L14 24.3027V11H17.646C17.846 10.9994 18.0415 11.0591 18.2071 11.1713C18.3727 11.2835 18.5006 11.4429 18.5742 11.6289L20.3228 16H26V14H21.6772Z" fill="#F2963F"/>
<path d="M17.051 18.3161L19 24.1621V30.0001H21V23.8381L18.949 17.6841L17.051 18.3161Z" fill="#F2963F"/>
<path d="M16.5 8C15.8078 8 15.1311 7.79473 14.5555 7.41015C13.9799 7.02556 13.5313 6.47894 13.2664 5.83939C13.0015 5.19985 12.9322 4.49612 13.0673 3.81719C13.2023 3.13825 13.5356 2.51461 14.0251 2.02513C14.5146 1.53564 15.1383 1.2023 15.8172 1.06725C16.4961 0.932205 17.1999 1.00152 17.8394 1.26642C18.4789 1.53133 19.0256 1.97993 19.4101 2.55551C19.7947 3.13108 20 3.80777 20 4.5C19.9989 5.42792 19.6298 6.31751 18.9736 6.97365C18.3175 7.62978 17.4279 7.99889 16.5 8ZM16.5 3C16.2033 3 15.9133 3.08798 15.6666 3.2528C15.42 3.41762 15.2277 3.65189 15.1142 3.92598C15.0007 4.20007 14.9709 4.50167 15.0288 4.79264C15.0867 5.08361 15.2296 5.35088 15.4393 5.56066C15.6491 5.77044 15.9164 5.9133 16.2074 5.97118C16.4983 6.02906 16.7999 5.99935 17.074 5.88582C17.3481 5.77229 17.5824 5.58003 17.7472 5.33336C17.912 5.08668 18 4.79667 18 4.5C17.9996 4.10231 17.8414 3.72105 17.5602 3.43984C17.279 3.15863 16.8977 3.00045 16.5 3Z" fill="#F2963F"/>
</g>
</g>
<defs>
<clipPath id="clip0_181_49">
<rect width="32" height="32" fill="white"/>
</clipPath>
</defs>
</svg>
